# xmcd
#
# Track frame offsets: 
#        150
#        15867
#        28338
#        36889
#        46725
#        56632
#        67601
#        78521
#        88508
#        99427
#        111371
#        125963
#        132643
#        143617
#        155305
#        165496
#
# Disc length: 2429 seconds
#
# Revision: 0
# Processed by: cddbd v1.5.2PL0 Copyright (c) Steve Scherf et al.
# Submitted via: ExactAudioCopy v1.0b3
#
DISCID=cb097b10
DTITLE=Willie Nelson - The Classic Christmas Album
DYEAR=2012
DGENRE=Christmas
TTITLE0=A Dreamer's Holiday
TTITLE1=White Christmas
TTITLE2=Here Comes Santa Claus
TTITLE3=Jingle Bells
TTITLE4=Rudolph The Red-Nosed Reindeer
TTITLE5=Winter Wonderland
TTITLE6=Frosty The Snowman
TTITLE7=Santa Claus Is Coming To Town
TTITLE8=Pretty Paper
TTITLE9=Blue Christmas
TTITLE10=Christmas Blues
TTITLE11=O Little Town Of Bethlehem
TTITLE12=Away In A Manger (with Bobbie Nelson)
TTITLE13=Joy To The World (with Bobbie Nelson)
TTITLE14=What A Wonderful World
TTITLE15=Silent Night, Holy Night
EXTD=
EXTT0=
EXTT1=
EXTT2=
EXTT3=
EXTT4=
EXTT5=
EXTT6=
EXTT7=
EXTT8=
EXTT9=
EXTT10=
EXTT11=
EXTT12=
EXTT13=
EXTT14=
EXTT15=
PLAYORDER=
